# File created by Blade
# Date/Time:  Tue Apr 07 20:35:32 2015
# Frame Rate: 120.000 fps
#------------------------------------------------------
:FULLY-SPECIFIED
:DEGREES
1157
root 1.169675 34.456446 -3.909961 41.807769 -17.915240 -35.509993
Spine -10.401618 22.169109 16.964506
Head -8.814606 2.234718 4.430235
LeftShoulder -23.972274 40.293373 16.511345
LeftArm 54.724287 -55.064276 -85.778804
LeftForeArm 0.803669 -0.000000 7.904501
LeftHand 11.971322 -0.000000 8.194324
LeftHandThumb1 -26.253704 0.000000 33.147579
RightShoulder 1.776761 8.824629 -20.491556
RightArm 15.499891 11.256823 60.481632
RightForeArm -6.511623 0.000000 25.426661
RightHand 2.771254 -0.000000 9.086256
RightHandThumb1 -24.326973 -0.000000 -32.862282
LeftUpLeg -28.702289 0.972597 31.390236
LeftLeg 7.998108 -0.000000 -0.000000
LeftFoot -6.394249 13.675267 -13.740414
LeftToeBase -6.236115 -0.000000 0.000000
RightUpLeg -7.866155 -12.476304 -27.495064
RightLeg 93.299008 -0.000000 -0.000000
RightFoot 41.646591 -13.467043 -2.609637
RightToeBase 29.790765 -0.000000 -0.000000
1158
root 1.167202 34.453279 -3.916160 41.879137 -17.631490 -35.288892
Spine -10.649869 22.282464 16.733953
Head -8.986872 1.920920 4.661629
LeftShoulder -24.117384 40.478018 16.311130
LeftArm 55.406790 -55.053225 -85.961401
LeftForeArm 0.793711 0.000000 7.896810
LeftHand 11.889848 0.000000 8.421572
LeftHandThumb1 -26.253704 0.000000 33.147579
RightShoulder 1.602154 8.688447 -20.331927
RightArm 15.275017 11.451766 60.449243
RightForeArm -6.568467 -0.000000 25.296203
RightHand 2.857397 -0.000000 9.403223
RightHandThumb1 -24.326973 -0.000000 -32.862282
LeftUpLeg -29.038358 1.194755 31.284044
LeftLeg 8.018779 -0.000000 -0.000000
LeftFoot -6.487880 13.002952 -14.347330
LeftToeBase -5.860402 -0.000000 0.000000
RightUpLeg -7.397069 -11.992822 -27.120779
RightLeg 93.149113 -0.000000 -0.000000
RightFoot 41.534322 -13.354765 -2.543807
RightToeBase 29.955954 -0.000000 -0.000000
1159
root 1.170221 34.447278 -3.919686 41.922221 -17.408629 -35.011270
Spine -10.878937 22.383430 16.428197
Head -9.159739 1.614505 4.905738
LeftShoulder -24.165332 40.484581 16.240417
LeftArm 55.812029 -55.075583 -86.012120
LeftForeArm 0.768759 -0.000000 7.921241
LeftHand 11.854294 0.000000 8.758184
LeftHandThumb1 -26.253704 0.000000 33.147579
RightShoulder 1.452780 8.567754 -20.164129
RightArm 14.984058 11.623620 60.393247
RightForeArm -6.671519 -0.000000 25.269685
RightHand 2.868717 -0.000000 9.244802
RightHandThumb1 -24.326973 -0.000000 -32.862282
LeftUpLeg -29.284807 1.330176 31.138136
LeftLeg 7.890087 -0.000000 -0.000000
LeftFoot -6.550127 12.342362 -15.090071
LeftToeBase -5.569223 -0.000000 0.000000
RightUpLeg -6.926142 -11.510307 -26.864223
RightLeg 92.963059 -0.000000 -0.000000
RightFoot 41.536491 -13.248686 -2.474860
RightToeBase 30.056381 -0.000000 -0.000000
1160
root 1.169376 34.445865 -3.927609 42.006249 -17.125751 -34.795681
Spine -11.128110 22.490319 16.190613
Head -9.337908 1.284602 5.169301
LeftShoulder -24.205734 40.475623 16.199725
LeftArm 56.127131 -55.000146 -85.974980
LeftForeArm 0.597534 -0.000000 7.963218
LeftHand 11.824952 0.000000 9.284186
LeftHandThumb1 -26.253704 0.000000 33.147579
RightShoulder 1.268711 8.472408 -20.089647
RightArm 14.622791 11.901011 60.535070
RightForeArm -6.534648 -0.000000 25.407054
RightHand 2.321214 -0.000000 10.045092
RightHandThumb1 -24.326973 -0.000000 -32.862282
LeftUpLeg -29.605637 1.454289 31.091075
LeftLeg 7.863408 -0.000000 -0.000000
LeftFoot -6.623667 11.722928 -15.750179
LeftToeBase -5.132893 -0.000000 0.000000
RightUpLeg -6.473704 -11.056432 -26.511016
RightLeg 92.733232 -0.000000 -0.000000
RightFoot 41.605251 -13.150278 -2.402929
RightToeBase 30.244804 -0.000000 -0.000000
1161
root 1.165766 34.447264 -3.937297 42.061388 -16.798993 -34.548502
Spine -11.359747 22.562366 15.941620
Head -9.549522 0.933626 5.457493
LeftShoulder -24.241725 40.446480 16.173406
LeftArm 56.568002 -54.899505 -86.062965
LeftForeArm 0.446473 -0.000000 7.997545
LeftHand 11.888035 -0.000000 9.609100
LeftHandThumb1 -26.253704 0.000000 33.147579
RightShoulder 1.083879 8.372390 -19.916997
RightArm 14.302830 12.167706 60.522087
RightForeArm -6.690647 -0.000000 25.412861
RightHand 2.374524 -0.000000 9.831244
RightHandThumb1 -24.326973 -0.000000 -32.862282
LeftUpLeg -29.950665 1.576586 31.023426
LeftLeg 7.857552 -0.000000 -0.000000
LeftFoot -6.646409 11.079787 -16.334902
LeftToeBase -4.837531 -0.000000 0.000000
RightUpLeg -5.966879 -10.650400 -26.157251
RightLeg 92.479827 -0.000000 -0.000000
RightFoot 41.631099 -12.984436 -2.386708
RightToeBase 30.453554 -0.000000 -0.000000
1162
root 1.160584 34.448101 -3.944670 42.051038 -16.423673 -34.289973
Spine -11.530605 22.597426 15.747471
Head -9.759609 0.566378 5.711135
LeftShoulder -24.226812 40.401565 16.172787
LeftArm 56.910335 -54.746911 -86.078344
LeftForeArm 0.318589 -0.000000 8.099165
LeftHand 11.796915 -0.000000 9.946202
LeftHandThumb1 -26.253704 0.000000 33.147579
RightShoulder 0.896864 8.199454 -19.789768
RightArm 14.004517 12.413197 60.527821
RightForeArm -6.546185 0.000000 25.446802
RightHand 2.335969 0.000000 9.928984
RightHandThumb1 -24.326973 -0.000000 -32.862282
LeftUpLeg -30.242521 1.668984 30.944568
LeftLeg 7.797603 -0.000000 -0.000000
LeftFoot -6.607640 10.446977 -16.788941
LeftToeBase -4.453151 -0.000000 0.000000
RightUpLeg -5.355823 -10.274026 -25.809251
RightLeg 92.173504 -0.000000 -0.000000
RightFoot 41.648659 -12.754701 -2.368276
RightToeBase 30.734057 -0.000000 -0.000000
1163
root 1.155652 34.449097 -3.952274 42.032539 -16.022954 -34.019527
Spine -11.694116 22.585020 15.574279
Head -9.968361 0.235612 5.933385
LeftShoulder -24.192357 40.322084 16.200836
LeftArm 57.216010 -54.583167 -86.107704
LeftForeArm 0.190045 -0.000000 8.197977
LeftHand 11.811614 -0.000000 10.158627
LeftHandThumb1 -26.253704 0.000000 33.147579
RightShoulder 0.727991 8.005341 -19.666196
RightArm 13.766192 12.654298 60.523311
RightForeArm -6.449092 0.000000 25.409585
RightHand 2.375163 -0.000000 9.929334
RightHandThumb1 -24.326973 -0.000000 -32.862282
LeftUpLeg -30.544385 1.772418 30.840573
LeftLeg 7.739991 -0.000000 -0.000000
LeftFoot -6.620486 9.828296 -17.285988
LeftToeBase -3.949207 -0.000000 0.000000
RightUpLeg -4.724756 -9.930697 -25.461370
RightLeg 91.837264 -0.000000 -0.000000
RightFoot 41.675228 -12.389674 -2.494819
RightToeBase 30.939751 -0.000000 -0.000000
